<svg xmlns="http://www.w3.org/2000/svg" width="620" height="466" viewBox="0 0 620 466" font-family="Archivo,Helvetica,Arial,sans-serif">
<rect x="0" y="0" width="309" height="98" fill="#e8eef3"></rect><rect x="0" y="0" width="309" height="4" fill="#e1600f"></rect><text x="18" y="29" font-family="Archivo,Helvetica,Arial,sans-serif" font-size="10.5" font-weight="600" fill="#c4520b" letter-spacing="1.26">TUMOR-DERIVED</text><text x="18" y="54" font-family="Archivo,Helvetica,Arial,sans-serif" font-size="15" font-weight="800" fill="#0f2e4c">Patient-matched tumor</text><text x="18" y="73.5" font-family="Archivo,Helvetica,Arial,sans-serif" font-size="15" font-weight="800" fill="#0f2e4c">epithelial/stem cells</text><rect x="311" y="0" width="309" height="98" fill="#e8eef3"></rect><rect x="311" y="0" width="309" height="4" fill="#0f2e4c"></rect><text x="329" y="29" font-family="Archivo,Helvetica,Arial,sans-serif" font-size="10.5" font-weight="600" fill="#66798b" letter-spacing="1.26">ADJACENT-NORMAL</text><text x="329" y="54" font-family="Archivo,Helvetica,Arial,sans-serif" font-size="15" font-weight="800" fill="#0f2e4c">Same patient, same anatomical</text><text x="329" y="73.5" font-family="Archivo,Helvetica,Arial,sans-serif" font-size="15" font-weight="800" fill="#0f2e4c">segment</text><path d="M154.5 98L154.5 112" stroke="#8fa0b0" stroke-width="2"></path><path d="M465.5 98L465.5 112" stroke="#8fa0b0" stroke-width="2"></path><path d="M154.5 112L465.5 112" stroke="#8fa0b0" stroke-width="2"></path><path d="M21 112L154.5 112" stroke="#8fa0b0" stroke-width="2"></path><path d="M21 112L21 124" stroke="#8fa0b0" stroke-width="2"></path><path d="M21 124L21 424" stroke="#8fa0b0" stroke-width="2"></path><rect x="0" y="124" width="42" height="42" fill="#f5f7f9"></rect><rect x="0" y="124" width="42" height="42" fill="none" stroke="#0f2e4c" stroke-width="2"></rect><text x="21" y="150" font-family="Archivo,Helvetica,Arial,sans-serif" font-size="13" font-weight="800" fill="#e1600f" text-anchor="middle">02</text><text x="60" y="151" font-family="Archivo,Helvetica,Arial,sans-serif" font-size="17" font-weight="800" fill="#0f2e4c">Candidate antigenic biomarker profiling</text><rect x="0" y="184" width="42" height="42" fill="#f5f7f9"></rect><rect x="0" y="184" width="42" height="42" fill="none" stroke="#0f2e4c" stroke-width="2"></rect><text x="21" y="210" font-family="Archivo,Helvetica,Arial,sans-serif" font-size="13" font-weight="800" fill="#e1600f" text-anchor="middle">03</text><text x="60" y="211" font-family="Archivo,Helvetica,Arial,sans-serif" font-size="17" font-weight="800" fill="#0f2e4c">Tumor versus matched-normal comparison</text><rect x="0" y="244" width="42" height="42" fill="#f5f7f9"></rect><rect x="0" y="244" width="42" height="42" fill="none" stroke="#0f2e4c" stroke-width="2"></rect><text x="21" y="270" font-family="Archivo,Helvetica,Arial,sans-serif" font-size="13" font-weight="800" fill="#e1600f" text-anchor="middle">04</text><text x="60" y="271" font-family="Archivo,Helvetica,Arial,sans-serif" font-size="17" font-weight="800" fill="#0f2e4c">Normal epithelial liability screening</text><rect x="0" y="304" width="42" height="42" fill="#f5f7f9"></rect><rect x="0" y="304" width="42" height="42" fill="none" stroke="#0f2e4c" stroke-width="2"></rect><text x="21" y="330" font-family="Archivo,Helvetica,Arial,sans-serif" font-size="13" font-weight="800" fill="#e1600f" text-anchor="middle">05</text><text x="60" y="331" font-family="Archivo,Helvetica,Arial,sans-serif" font-size="17" font-weight="800" fill="#0f2e4c">Surface accessibility / expression validation</text><rect x="0" y="364" width="42" height="42" fill="#f5f7f9"></rect><rect x="0" y="364" width="42" height="42" fill="none" stroke="#0f2e4c" stroke-width="2"></rect><text x="21" y="390" font-family="Archivo,Helvetica,Arial,sans-serif" font-size="13" font-weight="800" fill="#e1600f" text-anchor="middle">06</text><text x="60" y="391" font-family="Archivo,Helvetica,Arial,sans-serif" font-size="17" font-weight="800" fill="#0f2e4c">Modality-fit recommendation</text><rect x="0" y="424" width="42" height="42" fill="#e1600f"></rect><text x="21" y="450" font-family="Archivo,Helvetica,Arial,sans-serif" font-size="13" font-weight="800" fill="#f5f7f9" text-anchor="middle">07</text><rect x="60" y="424" width="560" height="42" fill="#0f2e4c"></rect><text x="80" y="451" font-family="Archivo,Helvetica,Arial,sans-serif" font-size="19" font-weight="800" fill="#f5f7f9">Ranked target-validation package</text>
</svg>